<svg width="153" height="153" viewBox="0 0 153 153" fill="none" xmlns="http://www.w3.org/2000/svg">
<rect width="153" height="153" rx="24" fill="#5625EE"/>
<path d="M98.0316 119H55.9682C53.9841 119 52.3401 117.269 52.3401 115.18V94.1088H30.6281C28.644 94.1088 27 92.3778 27 90.2886C27 80.9171 29.8345 72.2619 34.9932 66.0541C39.4716 60.6222 45.424 57.2795 52.0566 56.3841V37.8202C52.0566 35.731 53.7006 34 55.6848 34H71.9546C80.0611 34 87.4874 37.4024 92.8162 43.5506C95.9908 47.1917 98.2584 51.6088 99.4488 56.2647C116.569 57.8167 127 73.217 127 87.5428C127.057 105.152 114.301 119 98.0316 119ZM59.5963 111.36H98.0316C110.22 111.36 119.8 100.914 119.8 87.5428C119.8 77.1566 112.544 66.0541 100.469 64.0843C100.469 78.5295 89.5282 94.1088 71.9546 94.1088H59.5963V111.36ZM34.4263 86.4684H71.9546C80.5713 86.4684 93.2697 79.3652 93.2697 64.0246C93.2697 63.9052 93.2697 63.8455 93.2697 63.7261H55.6848C44.2902 63.7858 35.7868 73.0976 34.4263 86.4684ZM59.3129 56.1454H91.8525C88.9613 48.2662 81.9319 41.6404 71.9546 41.6404H59.3129V56.1454Z" fill="white"/>
</svg>
